<?xml version="1.0" encoding="UTF-8"?>
<!-- Created with Inkscape (http://www.inkscape.org/) -->
<svg width="78.211mm" height="29.514mm" version="1.1" viewBox="0 0 78.211 29.514" xml:space="preserve" xmlns="http://www.w3.org/2000/svg"><g transform="translate(-56.662 -153.64)"><path d="m129.65 182.93c0-0.12719 0.30783-0.78204 0.68407-1.4552l0.68408-1.224h-1.4454c-0.96205 0-1.5556 0.13272-1.7748 0.39687-0.49972 0.60213-0.65962 0.48328-0.68029-0.50563-0.018-0.85939 0.0186-0.89519 0.79375-0.77617 0.44692 0.0686 1.2728 0.0259 1.8354-0.0949l1.0228-0.2197-0.95674-1.1452c-0.52621-0.62983-0.88374-1.2633-0.79451-1.4076 0.10505-0.16998 0.26362-0.16112 0.44987 0.0251 0.1582 0.1582 0.50195 0.28764 0.76389 0.28764s0.47625 0.12975 0.47625 0.28834 0.31932 0.62667 0.7096 1.0402c0.63749 0.67543 0.83549 0.73691 1.9486 0.60508 0.80469-0.0953 1.3059-0.0385 1.4298 0.16205 0.32598 0.52745-0.3756 1.0473-1.5267 1.1313-0.85752 0.0625-1.1233 0.19759-1.1995 0.60951-0.0539 0.29105-0.26324 0.62438-0.4653 0.74076-0.20206 0.11637-0.36738 0.33541-0.36738 0.48675 0 0.29241-1.0549 1.2624-1.3891 1.2772-0.10914 5e-3 -0.19843-0.0953-0.19843-0.22245zm-71.967-1.5486c-0.63814-0.32326-0.9505-0.67904-1.0047-1.1444-0.13205-1.1334 0.69994-1.6021 3.9592-2.2304 0.60226-0.1161 0.74784-0.33309 0.99422-1.4819 0.48389-2.2563 0.8423-9.8226 0.77601-16.382-0.0374-3.6955 0.038-6.2593 0.18589-6.3203 0.47613-0.19641 0.86797 1.1245 1.0431 3.5163 0.31957 4.3654-0.41744 17.795-1.1036 20.109-0.14157 0.47756-0.0293 0.4952 2.1063 0.33104 2.1417-0.16462 11.175 0.21844 12.16 0.51565 0.25466 0.0769 0.46302 0.24481 0.46302 0.37322 0 0.13301-2.9395 0.16473-6.8311 0.0737-3.7571-0.0879-7.1381-0.0827-7.5134 0.0115-0.38604 0.0969-0.91511 0.56574-1.2183 1.0796-0.9939 1.6845-2.5578 2.2876-4.0164 1.5487zm2.7211-1.3698c0.24966-0.42264 0.45392-0.85594 0.45392-0.9629 0-0.3394-2.7293 0.11389-3.1363 0.5209-0.58776 0.58776 0.0602 1.2104 1.2596 1.2104 0.78886 0 1.0532-0.14278 1.4228-0.76843zm23.34 1.4661c-2.2707-1.0068-1.5568-2.7346 1.323-3.2022 2.2881-0.37145 2.1684-0.2726 2.4898-2.0574 0.45248-2.5126 0.89132-13.002 0.75315-18.002-0.0675-2.4421-0.0346-4.4946 0.0731-4.5612s0.35814 0.0753 0.55652 0.31516c0.29008 0.35077 0.35592 2.2024 0.33624 9.4559-0.0221 8.1495-0.21715 11.488-0.80886 13.846l-0.17128 0.68245 2.1813-0.16821c3.1897-0.24597 11.953 0.2835 12.429 0.75095 0.32292 0.31702-0.58701 0.34675-6.3568 0.20767-3.7035-0.0893-7.1557-0.0831-7.6715 0.0136-0.72726 0.13644-1.0353 0.38028-1.3718 1.086-0.73846 1.5486-2.3631 2.254-3.7623 1.6336zm2.4944-1.3948c0.72764-0.92504 0.69186-1.1552-0.17923-1.1535-1.1329 2e-3 -2.712 0.51705-2.712 0.88408 0 1.1452 2.0519 1.3364 2.8912 0.26939zm-5.955 0.90841c-0.30265-0.13857-0.74914-0.58859-0.99219-1-0.48218-0.81626-0.60176-3.05-0.17732-3.3123 0.62913-0.38882 0.24541-0.92604-0.66146-0.92604-1.1361 0-1.1661-0.32983-0.12457-1.3713 1.64-1.64 1.9362-3.1787 0.52565-2.731-0.45308 0.1438-0.54365 0.32129-0.41847 0.82004 0.18056 0.7194-0.36904 0.88984-0.88083 0.27317-0.87905-1.0592 1.4577-2.2513 2.9-1.4794 0.74607 0.39929 0.63051 1.1175-0.3962 2.4626-0.74536 0.97647-0.83409 1.2179-0.49542 1.3478 0.26526 0.10179 0.87902-0.27801 1.719-1.0638 1.6436-1.5374 2.0369-1.3015 0.4781 0.28675l-1.1576 1.1796 0.57746 1.1562c0.3176 0.63594 0.65161 1.527 0.74224 1.9802 0.34174 1.7087-0.48355 2.9063-1.6384 2.3776zm0.6005-2.0558c-0.30792-2.5999-1.329-3.1316-1.329-0.69195 0 1.2464 0.41071 2.0073 1.0835 2.0073 0.32579 0 0.37201-0.24758 0.24555-1.3153zm41.291 1.4047c0.1819-0.0734 0.47955-0.0734 0.66146 0 0.1819 0.0734 0.0331 0.13346-0.33073 0.13346-0.36381 0-0.51263-0.0601-0.33073-0.13346zm2.1167 0c0.1819-0.0734 0.47956-0.0734 0.66146 0s0.0331 0.13346-0.33073 0.13346c-0.3638 0-0.51263-0.0601-0.33073-0.13346zm-3.9688-0.26458c0.1819-0.0734 0.47956-0.0734 0.66146 0s0.0331 0.13345-0.33073 0.13345c-0.3638 0-0.51263-0.0601-0.33073-0.13345zm5.8208 0c0.1819-0.0734 0.47955-0.0734 0.66146 0 0.1819 0.0734 0.0331 0.13345-0.33073 0.13345-0.36381 0-0.51263-0.0601-0.33073-0.13345zm-7.9375-0.26458c0.1819-0.0734 0.47955-0.0734 0.66146 0 0.1819 0.0734 0.0331 0.13345-0.33073 0.13345-0.36381 0-0.51263-0.0601-0.33073-0.13345zm-1.7859-0.35394c-0.21828-0.14107-0.27781-0.25648-0.13229-0.25648s0.44317 0.11541 0.66146 0.25648c0.21828 0.14106 0.27781 0.25648 0.13229 0.25648s-0.44318-0.11542-0.66146-0.25648zm-10.649-0.43981c0.1819-0.0734 0.47956-0.0734 0.66146 0s0.0331 0.13345-0.33073 0.13345c-0.3638 0-0.51263-0.06-0.33073-0.13345zm1.8521 0c0.1819-0.0734 0.47956-0.0734 0.66146 0s0.0331 0.13345-0.33073 0.13345c-0.3638 0-0.51263-0.06-0.33073-0.13345zm1.9894-8e-3c0.25743-0.0671 0.61462-0.0627 0.79375 0.01 0.17914 0.0725-0.0315 0.12736-0.46805 0.12197-0.43656-5e-3 -0.58313-0.0647-0.3257-0.13178zm1.7809-0.106c0-0.1319 0.23812-0.23981 0.52916-0.23981s0.52917 0.0456 0.52917 0.10143c0 0.0558-0.23813 0.16371-0.52917 0.23982-0.29104 0.0761-0.52916 0.0305-0.52916-0.10144zm2.4374-0.28708c-0.62397-0.30253-1.0685-0.61608-0.98777-0.69678 0.0807-0.0807 0.28761-6e-3 0.45981 0.16638 0.1722 0.17219 0.50464 0.31309 0.73877 0.31309 0.23412 0 0.65679 0.1748 0.93927 0.38846 0.73308 0.55447 0.17534 0.47147-1.1501-0.17115zm-10.176 0.13662c0.1819-0.0734 0.47956-0.0734 0.66146 0s0.0331 0.13346-0.33073 0.13346c-0.3638 0-0.51263-0.0601-0.33073-0.13346zm11.576-0.61852c0.0899-0.14552 0.36486-0.26276 0.61093-0.26053 0.38557 3e-3 0.39256 0.0395 0.0505 0.26053-0.51815 0.33486-0.86841 0.33486-0.66146 0zm2.0974-0.93172c0.28041-0.21215 0.57462-0.32095 0.65379-0.24178 0.16608 0.16607-0.50591 0.63835-0.89906 0.63187-0.14552-2e-3 -0.0352-0.17794 0.24527-0.39009zm-6.2322-0.30222c-0.32927-0.39915-0.30762-0.41062 0.23219-0.12298 0.61567 0.32806 0.76727 0.56317 0.36313 0.56317-0.12771 0-0.3956-0.19808-0.59532-0.44019zm7.7067-0.55335c0-0.14552 0.17859-0.4128 0.39687-0.59396 0.22139-0.18373 0.39688-0.21238 0.39688-0.0648 0 0.14552-0.17859 0.4128-0.39688 0.59396-0.22138 0.18373-0.39687 0.21238-0.39687 0.0648zm-16.88-0.38151c-0.17506-0.17505-0.31829-0.88187-0.31829-1.5707 0-1.1696-0.0481-1.258-0.7276-1.3361-0.87029-0.10014-1.1151-0.98136-0.45577-1.6407 0.55684-0.55684 1.0026-0.27848 0.8481 0.52964-0.10426 0.54539-0.0184 0.63044 0.63655 0.63044 0.73208 0 0.75706 0.0437 0.75706 1.3229 0 0.88291 0.11 1.3223 0.33073 1.3211 0.40788-2e-3 1.5214-1.5946 1.5214-2.1757 0-0.77951 0.32185-1.2781 1.0773-1.6687 1.4228-0.73575 2.3759-0.44264 2.6847 0.82559 0.14599 0.59962 0.0254 0.65282-1.6453 0.7256-0.79609 0.0347-1.0583 0.15615-1.0583 0.49022 0 0.4548 0.66777 1.2757 1.0378 1.2757 0.49575 0 1.8727-0.60266 1.8727-0.81963 0-0.13129 0.0893-0.21512 0.19844-0.18628 0.10914 0.0288 0.45949-0.0366 0.77855-0.1453 0.4323-0.14734 0.60084-0.44666 0.66146-1.1747 0.0566-0.67983 0.22217-1.0037 0.54436-1.0647 0.40933-0.0776 0.46302 0.15483 0.46302 2.0042 0 1.1506-0.0783 2.1703-0.17409 2.2661-0.30952 0.30951-0.88424-0.39592-0.88424-1.0854 0-0.61198-0.0401-0.63589-0.46302-0.27576-1.2254 1.0435-3.7537 1.4052-4.5134 0.64556-0.38092-0.38092-0.47794-0.34985-1.0942 0.35042-0.79201 0.89993-1.6293 1.2047-2.0778 0.75626zm5.238-3.9449c0-0.30232-0.71748-0.30915-0.90323-9e-3 -0.0774 0.12522-0.0728 0.29562 0.0102 0.37865 0.20648 0.20647 0.89298-0.078 0.89298-0.37005zm6.1516 4.0864c-0.20675-0.0834-0.33073-0.66413-0.33073-1.549 0-1.3476-0.0349-1.4196-0.72761-1.4993-0.87029-0.10014-1.1151-0.98136-0.45577-1.6407 0.55976-0.55976 1.0023-0.27708 0.84605 0.5404-0.0908 0.475-0.0115 0.63052 0.30581 0.59998 0.99462-0.0957 1.0898 0.0216 1.0898 1.3426 0 0.7276 0.11042 1.3229 0.24538 1.3229 0.39337 0 1.3421-1.3468 1.3421-1.9052 0-1.2198 1.3073-2.2722 2.3941-1.9272 0.99902 0.31707 1.1839 2.3543 0.30572 3.3694-0.46534 0.53789-1.6513 0.61148-2.132 0.1323-0.26556-0.26472-0.42136-0.21809-0.78052 0.23361-0.38894 0.48914-1.4411 1.1963-1.6881 1.1346-0.0459-0.0115-0.23236-0.0809-0.41426-0.15434zm4.4492-2.1197c0.14793-0.38909 0.19216-1.0571 0.0983-1.4845-0.15031-0.68436-0.21715-0.73056-0.56039-0.38731-0.21435 0.21434-0.4558 0.88235-0.53656 1.4844-0.12095 0.90176-0.0696 1.0947 0.29143 1.0947 0.24104 0 0.55929-0.31834 0.70722-0.70742zm-7.9887 1.5673c-0.32911-0.41964-0.31975-0.429 0.0999-0.0999 0.44073 0.34564 0.58089 0.56292 0.36313 0.56292-0.0549 0-0.2633-0.20836-0.46302-0.46303zm-43.627-0.33475c-0.39565-0.39565-0.48723-0.71986-0.35502-1.2568 0.43275-1.7574 1.4927-2.4671 3.5341-2.366 1.1781 0.0583 1.1897 0.0681 1.1054 0.93289-0.15831 1.6235 0.88274 2.0309 3.1477 1.2318 1.4459-0.51014 2.0969-1.0957 2.0969-1.8861 0-0.44833 0.14989-0.62045 0.5403-0.62045 0.50418 0 0.53513 0.13708 0.46302 2.0505-0.0587 1.5563-0.16761 2.0505-0.4521 2.0505-0.20615 0-0.49034-0.35719-0.63154-0.79375-0.14119-0.43657-0.27667-0.82009-0.30107-0.85229s-0.56216 0.19765-1.195 0.51077c-1.3496 0.66773-3.8054 0.94797-4.3496 0.49635-0.2903-0.24093-0.58479-0.16209-1.3602 0.36415-1.1952 0.81108-1.5484 0.83288-2.2428 0.13845zm2.2295-1.3392c0.79419-0.94384 0.88295-1.5689 0.22196-1.5632-0.61287 5e-3 -0.98053 0.26984-1.3495 0.97074-0.7794 1.4808 0.0246 1.9032 1.1275 0.59241zm30.751 1.209c-0.23803-0.23803-0.43278-0.56179-0.43278-0.71947s-0.21774-0.0897-0.48386 0.15119c-0.26612 0.24084-0.80797 0.43788-1.2041 0.43788-0.58001 0-0.79963-0.18993-1.1278-0.97532-0.47362-1.1335-0.21307-2.541 0.49564-2.6775 0.35717-0.0688 0.45428 0.17805 0.51978 1.3211 0.11274 1.9673 0.7102 1.8913 1.41-0.17945 0.32215-0.95321 0.70627-1.618 0.96354-1.6675 0.35915-0.0692 0.4464 0.27021 0.54358 2.1143 0.12601 2.3911-0.0198 2.859-0.68402 2.1948zm-6.9386-0.52611c-0.47528-0.72536-0.3464-2.2527 0.23048-2.7314 0.61291-0.50867 1.6311-0.61089 2.1683-0.21767 0.70072 0.51292 0.71538 2.2964 0.0251 3.0591-0.69978 0.77324-1.8803 0.71967-2.4239-0.11zm1.734-0.38064c0.33346-0.62308 0.34839-1.6067 0.032-2.1064-0.1805-0.28506-0.3304-0.18249-0.65741 0.44988-0.53728 1.039-0.55605 2.1683-0.036 2.1683 0.21316 0 0.51082-0.2303 0.66146-0.51177zm26.215 0.22452c0.16243-0.3035 0.34802-0.49914 0.41242-0.43474 0.18518 0.18518-0.19023 0.98657-0.46216 0.98657-0.13516 0-0.11279-0.24813 0.0497-0.55183zm0.8234-1.8294c0-0.3638 0.0601-0.51263 0.13345-0.33073 0.0734 0.1819 0.0734 0.47956 0 0.66146s-0.13345 0.0331-0.13345-0.33073zm-0.30636-1.8521c-0.15576-0.29104-0.22367-0.52917-0.15091-0.52917 0.0728 0 0.25974 0.23813 0.4155 0.52917s0.22367 0.52917 0.15091 0.52917c-0.0728 0-0.25974-0.23813-0.4155-0.52917zm-12.648-0.39688c5e-3 -0.43656 0.0647-0.58312 0.13178-0.32569 0.0671 0.25743 0.0627 0.61462-0.01 0.79375-0.0725 0.17913-0.12736-0.0315-0.12197-0.46806zm6.7236-0.0216c-0.2456-0.64002-0.19528-0.7334 0.21273-0.39478 0.2552 0.2118 0.42756 0.22205 0.54478 0.0324 0.0943-0.15259 0.30171-0.27743 0.46091-0.27743s0.0149 0.23812-0.32068 0.52916c-0.73265 0.63543-0.698 0.63115-0.89774 0.11065zm-38.79-0.60742c0-0.1277 0.16799-0.37161 0.37332-0.54201 0.41462-0.34411 0.8387 0.0469 0.55272 0.50962-0.2015 0.32602-0.92604 0.35137-0.92604 0.0324zm34.707-0.20891c0.12873-0.66378 0.74701-0.75492 0.74701-0.11012 0 0.325-0.17084 0.55122-0.41628 0.55122-0.24639 0-0.38136-0.18002-0.33073-0.4411zm8.5366 0.0574c-0.49603-0.37059-0.49324-0.37858 0.0817-0.23372 0.32742 0.0825 0.59531 0.25517 0.59531 0.38371 0 0.31487-0.078 0.2976-0.67703-0.14999zm-2.035-0.32068c0.1819-0.0734 0.47956-0.0734 0.66146 0s0.0331 0.13346-0.33073 0.13346c-0.3638 0-0.51263-0.0601-0.33073-0.13346zm-8.6651-0.27744c0-0.15196 0.20836-0.43969 0.46302-0.63941 0.4283-0.33589 0.43391-0.32344 0.0749 0.16604-0.21349 0.29104-0.42184 0.57878-0.46302 0.63941-0.0412 0.0606-0.0749-0.0141-0.0749-0.16604zm5.297-0.46698c-0.20869-0.25145-0.22876-0.40326-0.0533-0.40326 0.31977 0 0.69258 0.50196 0.50909 0.68545-0.0666 0.0666-0.27169-0.0604-0.45577-0.28219zm-3.7095-0.93243c0.21828-0.14107 0.57547-0.24994 0.79375-0.24194 0.26169 0.01 0.21662 0.092-0.13229 0.24194-0.72736 0.31256-1.1451 0.31256-0.66146 0zm2.0505-0.17523c0.1819-0.0734 0.47956-0.0734 0.66146 0s0.0331 0.13345-0.33073 0.13345c-0.3638 0-0.51263-0.06-0.33073-0.13345z"/></g></svg>
